<svg xmlns="http://www.w3.org/2000/svg" version="1.1" xmlns:xlink="http://www.w3.org/1999/xlink" xmlns:svgjs="http://svgjs.dev/svgjs" width="2000" height="409" viewBox="0 0 2000 409"><g transform="matrix(1,0,0,1,5.1337218441467485,6.178874814896943)"><svg viewBox="0 0 396 81" data-background-color="#70ae6e" preserveAspectRatio="xMidYMid meet" height="409" width="2000" xmlns="http://www.w3.org/2000/svg" xmlns:xlink="http://www.w3.org/1999/xlink"><g id="tight-bounds" transform="matrix(1,0,0,1,0.24016648332053592,0.0339077999576034)"><svg viewBox="0 0 395.52 80.9321844000848" height="80.9321844000848" width="395.52"><g><svg viewBox="0 0 479.9501317000338 98.20846622570822" height="80.9321844000848" width="395.52"><g transform="matrix(1,0,0,1,84.43013170003384,13.572950107894556)"><svg viewBox="0 0 395.52 71.06256600991911" height="71.06256600991911" width="395.52"><g id="textblocktransform"><svg viewBox="0 0 395.52 71.06256600991911" height="71.06256600991911" width="395.52" id="textblock"><g><svg viewBox="0 0 395.52 45.63692307692308" height="45.63692307692308" width="395.52"><g transform="matrix(1,0,0,1,0,0)"><svg width="395.52" viewBox="2.05 -38.35 335.37 38.7" height="45.63692307692308" data-palette-color="#252422"><path d="M10 0.25L10 0.25Q7.25 0.25 5.4-2.05 3.55-4.35 3.55-8.35L3.55-8.35Q3.55-10.4 4-12.98 4.45-15.55 5.05-18.2 5.65-20.85 6.1-23.18 6.55-25.5 6.55-27.05L6.55-27.05Q6.55-28.15 6.25-28.78 5.95-29.4 5.15-29.4L5.15-29.4Q4.55-29.4 3.75-28.85 2.95-28.3 2.55-26.7L2.55-26.7 2.05-26.9Q2.05-31.2 4.03-33.7 6-36.2 9.35-36.2L9.35-36.2Q12.5-36.2 13.73-34.15 14.95-32.1 14.95-29L14.95-29Q14.95-26.7 14.48-24.1 14-21.5 13.4-18.93 12.8-16.35 12.33-14.15 11.85-11.95 11.85-10.5L11.85-10.5Q11.85-8.35 12.95-8.35L12.95-8.35Q13.6-8.35 14.7-9.28 15.8-10.2 17.03-11.83 18.25-13.45 19.4-15.53 20.55-17.6 21.35-19.9L21.35-19.9Q21.25-21 21.2-22.03 21.15-23.05 21.15-23.85L21.15-23.85Q21.15-27.85 21.93-30.3 22.7-32.75 23.9-33.9 25.1-35.05 26.35-35.05L26.35-35.05Q28.1-35.05 29.5-33.13 30.9-31.2 30.9-27.9L30.9-27.9Q30.9-25.85 30.15-23.33 29.4-20.8 27.65-17.95L27.65-17.95Q27.5-13.65 28.6-11 29.7-8.35 31.35-8.35L31.35-8.35Q32.4-8.35 33.63-9.43 34.85-10.5 35.9-12.43 36.95-14.35 37.63-16.9 38.3-19.45 38.3-22.35L38.3-22.35Q38.3-24.05 38.08-25.9 37.85-27.75 37.52-29.45 37.2-31.15 36.85-32.25L36.85-32.25Q36.85-33.1 37.58-33.98 38.3-34.85 39.45-35.48 40.6-36.1 41.8-36.1L41.8-36.1Q43-36.1 44.1-35.25 45.2-34.4 45.9-32.27 46.6-30.15 46.6-26.25L46.6-26.25Q46.6-20.8 45.2-16.03 43.8-11.25 41.43-7.6 39.05-3.95 36.2-1.88 33.35 0.2 30.4 0.2L30.4 0.2Q27.8 0.2 26.1-1.4 24.4-3 23.45-5.7 22.5-8.4 22.1-11.7L22.1-11.7Q20.3-7.4 18.2-4.78 16.1-2.15 14-0.95 11.9 0.25 10 0.25ZM53.25 0.2L53.25 0.2Q51.1 0.2 49.8-1.25 48.5-2.7 48.5-5.2L48.5-5.2Q48.5-6.55 48.85-8.72 49.2-10.9 49.72-13.53 50.25-16.15 50.75-18.88 51.25-21.6 51.6-24.15 51.95-26.7 51.95-28.65L51.95-28.65Q51.95-31.1 51.3-32.2L51.3-32.2 51.3-32.5Q52.4-33.75 53.7-34.35 55-34.95 56.25-34.95L56.25-34.95Q58.15-34.95 59.5-33.6 60.85-32.25 60.85-29.55L60.85-29.55Q60.85-28.1 60.45-26 60.05-23.9 59.5-21.6 58.95-19.3 58.4-17.3L58.4-17.3Q59.35-19.15 60.92-20.98 62.5-22.8 64.52-24 66.55-25.2 68.75-25.2L68.75-25.2Q71.25-25.2 72.12-23.65 73-22.1 73-19.8L73-19.8Q73-17.7 72.55-15.33 72.1-12.95 71.65-10.78 71.2-8.6 71.2-7.15L71.2-7.15Q71.2-5.05 72.45-5.05L72.45-5.05Q73-5.05 73.42-5.38 73.85-5.7 74.05-6.1L74.05-6.1 74.4-5.85Q74.4-3.9 73.45-2.55 72.5-1.2 71.02-0.5 69.55 0.2 68 0.2L68 0.2Q65.95 0.2 64.3-1.18 62.65-2.55 62.65-5.65L62.65-5.65Q62.65-7.4 63.12-9.45 63.6-11.5 64.05-13.43 64.5-15.35 64.5-16.65L64.5-16.65Q64.5-18.35 63.3-18.35L63.3-18.35Q62.2-18.35 60.9-17.25 59.6-16.15 58.62-14.5 57.65-12.85 57.35-11.25L57.35-11.25Q57.25-10.85 57.25-10.3L57.25-10.3Q57.25-9.05 57.62-7.9 58-6.75 58-5.2L58-5.2Q58-2.9 56.8-1.35 55.6 0.2 53.25 0.2ZM95.25 0.25L95.25 0.25Q93.5 0.25 92.2-0.9 90.9-2.05 90.9-4.65L90.9-4.65Q90.9-4.9 90.9-5.15 90.9-5.4 90.95-5.65L90.95-5.65Q89.45-2.65 87.57-1.23 85.7 0.2 83.8 0.2L83.8 0.2Q82.05 0.2 80.5-1.03 78.95-2.25 78-4.65 77.05-7.05 77.05-10.45L77.05-10.45Q77.05-13.95 78.02-16.7 79-19.45 80.59-21.35 82.2-23.25 84.09-24.23 86-25.2 87.8-25.2L87.8-25.2Q89.8-25.2 91.4-23.98 93-22.75 93.59-20.1L93.59-20.1Q93.75-20.95 93.82-21.65 93.9-22.35 93.9-22.6L93.9-22.6Q93.95-23.95 95.27-24.6 96.59-25.25 98.2-25.25L98.2-25.25Q99.59-25.25 100.84-24.7 102.09-24.15 102.55-22.85L102.55-22.85 102.65-22.55Q102.05-21.2 101.45-19.3 100.84-17.4 100.34-15.33 99.84-13.25 99.55-11.28 99.25-9.3 99.25-7.8L99.25-7.8Q99.25-6.15 99.59-5.53 99.95-4.9 100.45-4.9L100.45-4.9Q101.3-4.9 102-6.1L102-6.1 102.4-5.9Q102.4-4.2 101.3-2.8 100.2-1.4 98.55-0.58 96.9 0.25 95.25 0.25ZM87.09-6.1L87.09-6.1Q88.4-6.1 89.97-8.43 91.55-10.75 92.7-15.1L92.7-15.1Q92.8-15.55 92.9-15.98 93-16.4 93.05-16.8L93.05-16.8Q92.25-18.65 91.37-19.43 90.5-20.2 89.65-20.2L89.65-20.2Q88.4-20.2 87.32-18.88 86.25-17.55 85.57-15.55 84.89-13.55 84.89-11.55L84.89-11.55Q84.89-8.8 85.52-7.45 86.15-6.1 87.09-6.1ZM112.34 0.2L112.34 0.2Q110.74 0.2 109.32-0.53 107.89-1.25 107.02-2.8 106.14-4.35 106.14-6.75L106.14-6.75Q106.14-8.05 106.39-10.15 106.64-12.25 107.07-14.75 107.49-17.25 107.94-19.75L107.94-19.75Q106.94-19.7 106.02-19.55 105.09-19.4 104.19-19.2L104.19-19.2 104.09-19.55Q105.09-20.75 106.19-21.6 107.29-22.45 108.49-23L108.49-23Q109.14-26.3 109.59-28.73 110.04-31.15 110.04-31.6L110.04-31.6Q110.04-32.45 111.37-33 112.69-33.55 114.34-33.55L114.34-33.55Q115.79-33.55 117.07-33 118.34-32.45 118.79-31.15L118.79-31.15Q118.49-30.85 117.94-28.93 117.39-27 116.79-24.25L116.79-24.25Q117.74-24.2 118.74-24.15 119.74-24.1 120.79-24L120.79-24Q120.89-23.7 120.94-23.35 120.99-23 120.99-22.6L120.99-22.6Q120.99-21.85 120.77-20.98 120.54-20.1 120.24-19.4L120.24-19.4Q119.04-19.5 117.99-19.63 116.94-19.75 115.94-19.8L115.94-19.8Q115.54-17.65 115.22-15.5 114.89-13.35 114.72-11.6 114.54-9.85 114.54-8.85L114.54-8.85Q114.54-6.75 115.32-6.05 116.09-5.35 117.19-5.35L117.19-5.35Q118.19-5.35 118.99-5.75 119.79-6.15 120.14-6.7L120.14-6.7 120.64-6.55Q120.34-4.5 119.04-2.98 117.74-1.45 115.94-0.63 114.14 0.2 112.34 0.2ZM143.04 0.2L143.04 0.2Q141.49 0.2 140.31-0.6 139.14-1.4 139.19-3L139.19-3Q139.29-5.8 139.61-9.2 139.94-12.6 140.39-16.13 140.84-19.65 141.31-22.9 141.79-26.15 142.19-28.7L142.19-28.7Q141.29-28.8 140.44-28.85 139.59-28.9 138.89-28.9L138.89-28.9Q136.79-28.9 135.11-28.5 133.44-28.1 132.29-27.1L132.29-27.1Q132.29-30.25 132.81-32.23 133.34-34.2 134.76-35.1 136.19-36 138.94-36L138.94-36Q140.94-36 143.41-35.68 145.89-35.35 148.44-35 150.99-34.65 153.19-34.65L153.19-34.65Q154.99-34.65 156.41-35 157.84-35.35 158.59-36.25L158.59-36.25Q159.69-35.9 160.29-34.73 160.89-33.55 160.89-32.15L160.89-32.15Q160.89-30.9 160.34-29.73 159.79-28.55 158.59-27.78 157.39-27 155.34-27L155.34-27Q154.39-27 153.01-27.18 151.64-27.35 150.09-27.55L150.09-27.55Q149.54-24.55 148.96-20.38 148.39-16.2 148.01-11.4 147.64-6.6 147.54-1.65L147.54-1.65Q146.64-0.7 145.41-0.25 144.19 0.2 143.04 0.2ZM172.34 0.35L172.34 0.35Q168.59 0.35 166.14-1.15 163.69-2.65 162.51-5.13 161.34-7.6 161.34-10.4L161.34-10.4Q161.34-13.05 162.31-15.7 163.29-18.35 165.16-20.53 167.04-22.7 169.74-24.03 172.44-25.35 175.94-25.35L175.94-25.35Q179.69-25.35 182.11-23.83 184.54-22.3 185.71-19.8 186.89-17.3 186.89-14.45L186.89-14.45Q186.89-11.85 185.94-9.22 184.99-6.6 183.11-4.42 181.24-2.25 178.54-0.95 175.84 0.35 172.34 0.35ZM173.69-3.9L173.69-3.9Q175.04-3.9 175.94-5.3 176.84-6.7 177.29-8.88 177.74-11.05 177.74-13.3L177.74-13.3Q177.74-15.3 177.36-17.07 176.99-18.85 176.24-19.98 175.49-21.1 174.29-21.1L174.29-21.1Q172.99-21.1 172.06-19.7 171.14-18.3 170.69-16.15 170.24-14 170.24-11.7L170.24-11.7Q170.24-9.7 170.61-7.93 170.99-6.15 171.74-5.03 172.49-3.9 173.69-3.9ZM211.13 0.3L211.13 0.3Q207.98 0.3 205.71-0.98 203.43-2.25 201.96-4.48 200.48-6.7 199.81-9.53 199.13-12.35 199.23-15.4L199.23-15.4Q199.43-20.85 201.23-24.8 203.03-28.75 205.78-31.3 208.53-33.85 211.71-35.08 214.88-36.3 217.83-36.3L217.83-36.3Q220.33-36.3 222.36-35.48 224.38-34.65 225.58-33.08 226.78-31.5 226.78-29.25L226.78-29.25Q226.78-27.5 225.76-25.88 224.73-24.25 222.66-23.23 220.58-22.2 217.33-22.2L217.33-22.2Q217.88-23.8 218.13-25 218.38-26.2 218.38-27.05L218.38-27.05Q218.38-28.8 217.58-29.43 216.78-30.05 215.58-30.05L215.58-30.05Q214.13-30.05 212.83-29 211.53-27.95 210.51-26.18 209.48-24.4 208.88-22.25 208.28-20.1 208.18-17.9L208.18-17.9Q207.98-12.35 209.78-9.5 211.58-6.65 214.43-6.65L214.43-6.65Q216.63-6.65 219.31-8.45 221.98-10.25 224.58-13.9L224.58-13.9 225.23-13.6Q224.58-9.1 222.38-6 220.18-2.9 217.21-1.3 214.23 0.3 211.13 0.3ZM239.63 0.35L239.63 0.35Q235.88 0.35 233.43-1.15 230.98-2.65 229.8-5.13 228.63-7.6 228.63-10.4L228.63-10.4Q228.63-13.05 229.6-15.7 230.58-18.35 232.45-20.53 234.33-22.7 237.03-24.03 239.73-25.35 243.23-25.35L243.23-25.35Q246.98-25.35 249.4-23.83 251.83-22.3 253-19.8 254.18-17.3 254.18-14.45L254.18-14.45Q254.18-11.85 253.23-9.22 252.28-6.6 250.4-4.42 248.53-2.25 245.83-0.95 243.13 0.35 239.63 0.35ZM240.98-3.9L240.98-3.9Q242.33-3.9 243.23-5.3 244.13-6.7 244.58-8.88 245.03-11.05 245.03-13.3L245.03-13.3Q245.03-15.3 244.65-17.07 244.28-18.85 243.53-19.98 242.78-21.1 241.58-21.1L241.58-21.1Q240.28-21.1 239.35-19.7 238.43-18.3 237.98-16.15 237.53-14 237.53-11.7L237.53-11.7Q237.53-9.7 237.9-7.93 238.28-6.15 239.03-5.03 239.78-3.9 240.98-3.9ZM267.98 0.35L267.98 0.35Q264.23 0.35 261.78-1.15 259.33-2.65 258.15-5.13 256.98-7.6 256.98-10.4L256.98-10.4Q256.98-13.05 257.95-15.7 258.93-18.35 260.8-20.53 262.68-22.7 265.38-24.03 268.08-25.35 271.58-25.35L271.58-25.35Q275.33-25.35 277.75-23.83 280.18-22.3 281.35-19.8 282.53-17.3 282.53-14.45L282.53-14.45Q282.53-11.85 281.58-9.22 280.63-6.6 278.75-4.42 276.88-2.25 274.18-0.95 271.48 0.35 267.98 0.35ZM269.33-3.9L269.33-3.9Q270.68-3.9 271.58-5.3 272.48-6.7 272.93-8.88 273.38-11.05 273.38-13.3L273.38-13.3Q273.38-15.3 273-17.07 272.63-18.85 271.88-19.98 271.13-21.1 269.93-21.1L269.93-21.1Q268.63-21.1 267.7-19.7 266.78-18.3 266.33-16.15 265.88-14 265.88-11.7L265.88-11.7Q265.88-9.7 266.25-7.93 266.63-6.15 267.38-5.03 268.13-3.9 269.33-3.9ZM303.92 0.25L303.92 0.25Q302.27 0.25 300.82-0.53 299.37-1.3 298.47-2.8 297.57-4.3 297.57-6.4L297.57-6.4Q297.57-8.55 298.62-11.25L298.62-11.25Q299.42-11.65 300.52-12.5 301.62-13.35 302.47-14.43 303.32-15.5 303.32-16.55L303.32-16.55Q303.32-17.5 302.6-18.05 301.87-18.6 300.82-18.6L300.82-18.6Q299.52-18.6 298.37-17.8 297.22-17 296.35-15.73 295.47-14.45 295-12.98 294.52-11.5 294.52-10.15L294.52-10.15Q294.52-8.85 294.85-7.73 295.17-6.6 295.17-5.15L295.17-5.15Q295.17-2.9 293.97-1.35 292.77 0.2 290.42 0.2L290.42 0.2Q288.27 0.2 286.97-1.25 285.67-2.7 285.67-5.2L285.67-5.2Q285.67-6.5 286-8.65 286.32-10.8 286.82-13.4 287.32-16 287.8-18.78 288.27-21.55 288.6-24.13 288.92-26.7 288.92-28.75L288.92-28.75Q288.92-29.85 288.8-30.78 288.67-31.7 288.27-32.25L288.27-32.25 288.27-32.55Q289.37-33.8 290.67-34.4 291.97-35 293.22-35L293.22-35Q295.12-35 296.47-33.65 297.82-32.3 297.82-29.65L297.82-29.65Q297.82-28.25 297.45-26.25 297.07-24.25 296.55-22.05 296.02-19.85 295.47-17.85L295.47-17.85Q296.57-19.45 297.97-21.15 299.37-22.85 301.12-24.03 302.87-25.2 305.07-25.2L305.07-25.2Q307.62-25.2 309.07-23.58 310.52-21.95 310.52-19.7L310.52-19.7Q310.52-17.45 308.9-14.9 307.27-12.35 303.47-10.6L303.47-10.6Q304.12-9.15 305.27-8 306.42-6.85 307.8-6.23 309.17-5.6 310.37-5.6L310.37-5.6Q310.97-5.6 311.42-5.8L311.42-5.8 311.72-5.5Q310.47-2.6 308.3-1.18 306.12 0.25 303.92 0.25ZM322.97-11.4L322.97-11.4Q321.42-11.4 320.17-12.05 318.92-12.7 318.97-14.05L318.97-14.05Q319.07-17.1 320.12-18.9 321.17-20.7 322.65-21.75 324.12-22.8 325.47-23.55L325.47-23.55Q329.97-26.05 329.97-29.35L329.97-29.35Q329.97-31.15 328.97-32.02 327.97-32.9 326.67-32.9L326.67-32.9Q325.12-32.9 323.77-31.68 322.42-30.45 322.42-27.95L322.42-27.95Q322.42-26.7 322.87-25.1L322.87-25.1Q319.37-25.05 317.67-26.6 315.97-28.15 315.97-30.25L315.97-30.25Q315.97-32.1 317.27-33.98 318.57-35.85 321.05-37.1 323.52-38.35 327.12-38.35L327.12-38.35Q329.72-38.35 332.07-37.35 334.42-36.35 335.92-34.33 337.42-32.3 337.42-29.15L337.42-29.15Q337.42-26.25 336.37-24.5 335.32-22.75 333.75-21.7 332.17-20.65 330.57-19.8L330.57-19.8Q328.72-18.85 327.32-17.78 325.92-16.7 325.92-14.65L325.92-14.65Q325.92-14.2 326.02-13.65 326.12-13.1 326.32-12.45L326.32-12.45Q325.77-11.95 324.87-11.68 323.97-11.4 322.97-11.4ZM321.62 0.3L321.62 0.3Q319.57 0.3 318.22-1 316.87-2.3 316.87-4.2L316.87-4.2Q316.87-6.35 318.45-7.88 320.02-9.4 322.32-9.4L322.32-9.4Q324.37-9.4 325.75-8.1 327.12-6.8 327.12-4.9L327.12-4.9Q327.12-2.75 325.52-1.23 323.92 0.3 321.62 0.3Z" opacity="1" transform="matrix(1,0,0,1,0,0)" fill="#252422" class="wordmark-text-0" data-fill-palette-color="primary" id="text-0"></path></svg></g></svg></g><g transform="matrix(1,0,0,1,0,56.41070532923078)"><svg viewBox="0 0 232.209792 14.651860680688337" height="14.651860680688337" width="232.209792"><g transform="matrix(1,0,0,1,0,0)"><svg width="232.209792" viewBox="0.35 -39.25 627.54 39.6" height="14.651860680688337" data-palette-color="#252422"><path d="M10.15 0.3L10.15 0.3Q6.8 0.3 4.63-0.85 2.45-2 1.4-3.8 0.35-5.6 0.35-7.5L0.35-7.5Q0.35-9.35 1.25-11.03 2.15-12.7 3.83-13.8 5.5-14.9 7.8-14.9L7.8-14.9Q7.75-14.45 7.75-14.08 7.75-13.7 7.75-13.7L7.75-13.7Q7.75-10.35 8.4-8.43 9.05-6.5 10.05-5.68 11.05-4.85 12.1-4.85L12.1-4.85Q13.7-4.85 14.95-6.13 16.2-7.4 16.2-9.1L16.2-9.1Q16.2-11 14.58-12.45 12.95-13.9 10.45-15.65L10.45-15.65Q9.05-16.7 7.48-18.03 5.9-19.35 4.8-21.18 3.7-23 3.7-25.5L3.7-25.5Q3.7-28.1 4.93-30.1 6.15-32.1 8.18-33.48 10.2-34.85 12.63-35.58 15.05-36.3 17.45-36.3L17.45-36.3Q20.4-36.3 22.3-35.35 24.2-34.4 25.15-32.9 26.1-31.4 26.1-29.8L26.1-29.8Q26.1-28.3 25.28-26.93 24.45-25.55 22.85-24.7 21.25-23.85 18.9-23.85L18.9-23.85Q19.05-24.55 19.1-25.13 19.15-25.7 19.15-26.15L19.15-26.15Q19.15-28.65 18.07-29.73 17-30.8 15.7-30.8L15.7-30.8Q14.45-30.8 13.3-29.88 12.15-28.95 12.15-26.9L12.15-26.9Q12.15-25.15 13.08-23.9 14-22.65 15.48-21.7 16.95-20.75 18.6-19.85L18.6-19.85Q20.3-18.95 21.88-17.88 23.45-16.8 24.5-15.35 25.55-13.9 25.55-11.7L25.55-11.7Q25.55-9.4 24.3-7.23 23.05-5.05 20.9-3.38 18.75-1.7 15.98-0.7 13.2 0.3 10.15 0.3ZM39.4 0.35L39.4 0.35Q35.75 0.35 33.35-1.13 30.95-2.6 29.75-5.03 28.55-7.45 28.55-10.25L28.55-10.25Q28.55-12.9 29.57-15.58 30.6-18.25 32.57-20.45 34.55-22.65 37.37-24 40.2-25.35 43.75-25.35L43.75-25.35Q48.15-25.35 50.17-23.38 52.2-21.4 52.2-18.6L52.2-18.6Q52.2-16.2 50.92-14.18 49.65-12.15 47.55-10.93 45.45-9.7 42.95-9.7L42.95-9.7Q41.65-9.7 40.3-10.1 38.95-10.5 37.65-11.35L37.65-11.35Q37.9-8.25 39.45-6.85 41-5.45 43.15-5.45L43.15-5.45Q44.65-5.45 46.15-6.03 47.65-6.6 48.92-7.53 50.2-8.45 50.9-9.5L50.9-9.5 51.25-9.25Q51.25-6.65 50.17-4.83 49.1-3 47.35-1.85 45.6-0.7 43.52-0.18 41.45 0.35 39.4 0.35ZM40.55-13.15L40.55-13.15Q42.15-13.15 43.15-14.08 44.15-15 44.65-16.25 45.15-17.5 45.15-18.45L45.15-18.45Q45.15-19.6 44.5-20.38 43.85-21.15 42.7-21.15L42.7-21.15Q41.8-21.15 40.72-20.5 39.65-19.85 38.8-18.28 37.95-16.7 37.7-13.9L37.7-13.9Q39.3-13.15 40.55-13.15ZM72.9 0.25L72.9 0.25Q71.15 0.25 69.85-0.9 68.55-2.05 68.55-4.65L68.55-4.65Q68.55-4.9 68.55-5.15 68.55-5.4 68.6-5.65L68.6-5.65Q67.1-2.65 65.22-1.23 63.35 0.2 61.45 0.2L61.45 0.2Q59.7 0.2 58.15-1.03 56.6-2.25 55.65-4.65 54.7-7.05 54.7-10.45L54.7-10.45Q54.7-13.95 55.67-16.7 56.65-19.45 58.25-21.35 59.85-23.25 61.75-24.23 63.65-25.2 65.45-25.2L65.45-25.2Q67.45-25.2 69.05-23.98 70.65-22.75 71.25-20.1L71.25-20.1Q71.4-20.95 71.47-21.65 71.55-22.35 71.55-22.6L71.55-22.6Q71.6-23.95 72.92-24.6 74.25-25.25 75.85-25.25L75.85-25.25Q77.25-25.25 78.5-24.7 79.75-24.15 80.2-22.85L80.2-22.85 80.3-22.55Q79.7-21.2 79.1-19.3 78.5-17.4 78-15.33 77.5-13.25 77.2-11.28 76.9-9.3 76.9-7.8L76.9-7.8Q76.9-6.15 77.25-5.53 77.6-4.9 78.1-4.9L78.1-4.9Q78.95-4.9 79.65-6.1L79.65-6.1 80.05-5.9Q80.05-4.2 78.95-2.8 77.85-1.4 76.2-0.58 74.55 0.25 72.9 0.25ZM64.75-6.1L64.75-6.1Q66.05-6.1 67.62-8.43 69.2-10.75 70.35-15.1L70.35-15.1Q70.45-15.55 70.55-15.98 70.65-16.4 70.7-16.8L70.7-16.8Q69.9-18.65 69.02-19.43 68.15-20.2 67.3-20.2L67.3-20.2Q66.05-20.2 64.97-18.88 63.9-17.55 63.22-15.55 62.55-13.55 62.55-11.55L62.55-11.55Q62.55-8.8 63.17-7.45 63.8-6.1 64.75-6.1ZM88.74 0.2L88.74 0.2Q86.94 0.2 85.54-1.28 84.14-2.75 84.14-5.45L84.14-5.45Q84.14-6.75 84.44-8.4 84.74-10.05 85.14-11.78 85.54-13.5 85.84-15.03 86.14-16.55 86.14-17.55L86.14-17.55Q86.14-18.6 85.77-19.23 85.39-19.85 84.79-19.85L84.79-19.85Q83.84-19.85 82.84-18.55L82.84-18.55 82.54-18.75Q82.49-19.55 82.89-20.65 83.29-21.75 84.14-22.78 84.99-23.8 86.32-24.5 87.64-25.2 89.44-25.2L89.44-25.2Q92.09-25.2 93.29-23.68 94.49-22.15 94.49-20L94.49-20Q94.49-19.65 94.47-19.28 94.44-18.9 94.39-18.55L94.39-18.55Q96.19-21.8 98.17-23.53 100.14-25.25 101.84-25.25L101.84-25.25Q103.44-25.25 104.19-24 104.94-22.75 104.94-21L104.94-21Q104.94-19.4 104.32-17.75 103.69-16.1 102.47-15.03 101.24-13.95 99.49-14L99.49-14 99.29-14.1Q99.24-15.4 98.44-16.15 97.64-16.9 96.64-16.9L96.64-16.9Q95.29-16.9 94.12-15.55 92.94-14.2 92.94-11.65L92.94-11.65Q92.94-10.1 93.29-8.3 93.64-6.5 93.64-5.25L93.64-5.25Q93.64-3.75 92.94-2.5 92.24-1.25 91.14-0.53 90.04 0.2 88.74 0.2ZM116.09 0.35L116.09 0.35Q112.79 0.35 110.52-1.15 108.24-2.65 107.09-5.08 105.94-7.5 105.94-10.3L105.94-10.3Q105.94-12.95 106.97-15.6 107.99-18.25 109.99-20.48 111.99-22.7 114.87-24.03 117.74-25.35 121.49-25.35L121.49-25.35Q125.19-25.35 126.99-23.88 128.79-22.4 128.79-20.65L128.79-20.65Q128.79-18.8 126.94-17.25 125.09-15.7 121.54-15.7L121.54-15.7Q121.74-16.45 121.87-17.23 121.99-18 121.99-18.7L121.99-18.7Q121.99-19.75 121.54-20.48 121.09-21.2 119.94-21.2L119.94-21.2Q118.89-21.2 117.72-20.25 116.54-19.3 115.72-17.45 114.89-15.6 114.89-12.9L114.89-12.9Q114.89-10.25 115.77-8.6 116.64-6.95 118.04-6.23 119.44-5.5 120.99-5.5L120.99-5.5Q123.04-5.5 124.94-6.58 126.84-7.65 127.69-9.55L127.69-9.55 128.19-9.35Q128.19-6.75 127.02-4.93 125.84-3.1 123.99-1.93 122.14-0.75 120.04-0.2 117.94 0.35 116.09 0.35ZM135.89 0.2L135.89 0.2Q133.74 0.2 132.44-1.25 131.14-2.7 131.14-5.2L131.14-5.2Q131.14-6.55 131.49-8.72 131.84-10.9 132.36-13.53 132.89-16.15 133.39-18.88 133.89-21.6 134.24-24.15 134.59-26.7 134.59-28.65L134.59-28.65Q134.59-31.1 133.94-32.2L133.94-32.2 133.94-32.5Q135.04-33.75 136.34-34.35 137.64-34.95 138.89-34.95L138.89-34.95Q140.79-34.95 142.14-33.6 143.49-32.25 143.49-29.55L143.49-29.55Q143.49-28.1 143.09-26 142.69-23.9 142.14-21.6 141.59-19.3 141.04-17.3L141.04-17.3Q141.99-19.15 143.56-20.98 145.14-22.8 147.16-24 149.19-25.2 151.39-25.2L151.39-25.2Q153.89-25.2 154.76-23.65 155.64-22.1 155.64-19.8L155.64-19.8Q155.64-17.7 155.19-15.33 154.74-12.95 154.29-10.78 153.84-8.6 153.84-7.15L153.84-7.15Q153.84-5.05 155.09-5.05L155.09-5.05Q155.64-5.05 156.06-5.38 156.49-5.7 156.69-6.1L156.69-6.1 157.04-5.85Q157.04-3.9 156.09-2.55 155.14-1.2 153.66-0.5 152.19 0.2 150.64 0.2L150.64 0.2Q148.59 0.2 146.94-1.18 145.29-2.55 145.29-5.65L145.29-5.65Q145.29-7.4 145.76-9.45 146.24-11.5 146.69-13.43 147.14-15.35 147.14-16.65L147.14-16.65Q147.14-18.35 145.94-18.35L145.94-18.35Q144.84-18.35 143.54-17.25 142.24-16.15 141.26-14.5 140.29-12.85 139.99-11.25L139.99-11.25Q139.89-10.85 139.89-10.3L139.89-10.3Q139.89-9.05 140.26-7.9 140.64-6.75 140.64-5.2L140.64-5.2Q140.64-2.9 139.44-1.35 138.24 0.2 135.89 0.2ZM177.18 0.25L177.18 0.25Q174.43 0.25 172.58-2.05 170.73-4.35 170.73-8.35L170.73-8.35Q170.73-10.4 171.18-12.98 171.63-15.55 172.23-18.2 172.83-20.85 173.28-23.18 173.73-25.5 173.73-27.05L173.73-27.05Q173.73-28.15 173.43-28.78 173.13-29.4 172.33-29.4L172.33-29.4Q171.73-29.4 170.93-28.85 170.13-28.3 169.73-26.7L169.73-26.7 169.23-26.9Q169.23-31.2 171.21-33.7 173.18-36.2 176.53-36.2L176.53-36.2Q179.68-36.2 180.91-34.15 182.13-32.1 182.13-29L182.13-29Q182.13-26.7 181.66-24.1 181.18-21.5 180.58-18.93 179.98-16.35 179.51-14.15 179.03-11.95 179.03-10.5L179.03-10.5Q179.03-8.35 180.13-8.35L180.13-8.35Q180.78-8.35 181.88-9.28 182.98-10.2 184.21-11.83 185.43-13.45 186.58-15.53 187.73-17.6 188.53-19.9L188.53-19.9Q188.43-21 188.38-22.03 188.33-23.05 188.33-23.85L188.33-23.85Q188.33-27.85 189.11-30.3 189.88-32.75 191.08-33.9 192.28-35.05 193.53-35.05L193.53-35.05Q195.28-35.05 196.68-33.13 198.08-31.2 198.08-27.9L198.08-27.9Q198.08-25.85 197.33-23.33 196.58-20.8 194.83-17.95L194.83-17.95Q194.68-13.65 195.78-11 196.88-8.35 198.53-8.35L198.53-8.35Q199.58-8.35 200.81-9.43 202.03-10.5 203.08-12.43 204.13-14.35 204.81-16.9 205.48-19.45 205.48-22.35L205.48-22.35Q205.48-24.05 205.26-25.9 205.03-27.75 204.71-29.45 204.38-31.15 204.03-32.25L204.03-32.25Q204.03-33.1 204.76-33.98 205.48-34.85 206.63-35.48 207.78-36.1 208.98-36.1L208.98-36.1Q210.18-36.1 211.28-35.25 212.38-34.4 213.08-32.27 213.78-30.15 213.78-26.25L213.78-26.25Q213.78-20.8 212.38-16.03 210.98-11.25 208.61-7.6 206.23-3.95 203.38-1.88 200.53 0.2 197.58 0.2L197.58 0.2Q194.98 0.2 193.28-1.4 191.58-3 190.63-5.7 189.68-8.4 189.28-11.7L189.28-11.7Q187.48-7.4 185.38-4.78 183.28-2.15 181.18-0.95 179.08 0.25 177.18 0.25ZM220.43 0.2L220.43 0.2Q218.28 0.2 216.98-1.25 215.68-2.7 215.68-5.2L215.68-5.2Q215.68-6.55 216.03-8.72 216.38-10.9 216.91-13.53 217.43-16.15 217.93-18.88 218.43-21.6 218.78-24.15 219.13-26.7 219.13-28.65L219.13-28.65Q219.13-31.1 218.48-32.2L218.48-32.2 218.48-32.5Q219.58-33.75 220.88-34.35 222.18-34.95 223.43-34.95L223.43-34.95Q225.33-34.95 226.68-33.6 228.03-32.25 228.03-29.55L228.03-29.55Q228.03-28.1 227.63-26 227.23-23.9 226.68-21.6 226.13-19.3 225.58-17.3L225.58-17.3Q226.53-19.15 228.11-20.98 229.68-22.8 231.71-24 233.73-25.2 235.93-25.2L235.93-25.2Q238.43-25.2 239.31-23.65 240.18-22.1 240.18-19.8L240.18-19.8Q240.18-17.7 239.73-15.33 239.28-12.95 238.83-10.78 238.38-8.6 238.38-7.15L238.38-7.15Q238.38-5.05 239.63-5.05L239.63-5.05Q240.18-5.05 240.61-5.38 241.03-5.7 241.23-6.1L241.23-6.1 241.58-5.85Q241.58-3.9 240.63-2.55 239.68-1.2 238.21-0.5 236.73 0.2 235.18 0.2L235.18 0.2Q233.13 0.2 231.48-1.18 229.83-2.55 229.83-5.65L229.83-5.65Q229.83-7.4 230.31-9.45 230.78-11.5 231.23-13.43 231.68-15.35 231.68-16.65L231.68-16.65Q231.68-18.35 230.48-18.35L230.48-18.35Q229.38-18.35 228.08-17.25 226.78-16.15 225.81-14.5 224.83-12.85 224.53-11.25L224.53-11.25Q224.43-10.85 224.43-10.3L224.43-10.3Q224.43-9.05 224.81-7.9 225.18-6.75 225.18-5.2L225.18-5.2Q225.18-2.9 223.98-1.35 222.78 0.2 220.43 0.2ZM262.43 0.25L262.43 0.25Q260.68 0.25 259.38-0.9 258.08-2.05 258.08-4.65L258.08-4.65Q258.08-4.9 258.08-5.15 258.08-5.4 258.13-5.65L258.13-5.65Q256.63-2.65 254.75-1.23 252.88 0.2 250.98 0.2L250.98 0.2Q249.23 0.2 247.68-1.03 246.13-2.25 245.18-4.65 244.23-7.05 244.23-10.45L244.23-10.45Q244.23-13.95 245.2-16.7 246.18-19.45 247.78-21.35 249.38-23.25 251.28-24.23 253.18-25.2 254.98-25.2L254.98-25.2Q256.98-25.2 258.58-23.98 260.18-22.75 260.78-20.1L260.78-20.1Q260.93-20.95 261-21.65 261.08-22.35 261.08-22.6L261.08-22.6Q261.13-23.95 262.45-24.6 263.78-25.25 265.38-25.25L265.38-25.25Q266.78-25.25 268.03-24.7 269.28-24.15 269.73-22.85L269.73-22.85 269.83-22.55Q269.23-21.2 268.63-19.3 268.03-17.4 267.53-15.33 267.03-13.25 266.73-11.28 266.43-9.3 266.43-7.8L266.43-7.8Q266.43-6.15 266.78-5.53 267.13-4.9 267.63-4.9L267.63-4.9Q268.48-4.9 269.18-6.1L269.18-6.1 269.58-5.9Q269.58-4.2 268.48-2.8 267.38-1.4 265.73-0.58 264.08 0.25 262.43 0.25ZM254.28-6.1L254.28-6.1Q255.58-6.1 257.15-8.43 258.73-10.75 259.88-15.1L259.88-15.1Q259.98-15.55 260.08-15.98 260.18-16.4 260.23-16.8L260.23-16.8Q259.43-18.65 258.55-19.43 257.68-20.2 256.83-20.2L256.83-20.2Q255.58-20.2 254.5-18.88 253.43-17.55 252.75-15.55 252.08-13.55 252.08-11.55L252.08-11.55Q252.08-8.8 252.7-7.45 253.33-6.1 254.28-6.1ZM279.53 0.2L279.53 0.2Q277.93 0.2 276.5-0.53 275.08-1.25 274.2-2.8 273.33-4.35 273.33-6.75L273.33-6.75Q273.33-8.05 273.58-10.15 273.83-12.25 274.25-14.75 274.68-17.25 275.13-19.75L275.13-19.75Q274.13-19.7 273.2-19.55 272.28-19.4 271.38-19.2L271.38-19.2 271.28-19.55Q272.28-20.75 273.38-21.6 274.48-22.45 275.68-23L275.68-23Q276.33-26.3 276.78-28.73 277.23-31.15 277.23-31.6L277.23-31.6Q277.23-32.45 278.55-33 279.88-33.55 281.53-33.55L281.53-33.55Q282.98-33.55 284.25-33 285.53-32.45 285.98-31.15L285.98-31.15Q285.68-30.85 285.13-28.93 284.58-27 283.98-24.25L283.98-24.25Q284.93-24.2 285.93-24.15 286.93-24.1 287.98-24L287.98-24Q288.08-23.7 288.13-23.35 288.18-23 288.18-22.6L288.18-22.6Q288.18-21.85 287.95-20.98 287.73-20.1 287.43-19.4L287.43-19.4Q286.23-19.5 285.18-19.63 284.13-19.75 283.13-19.8L283.13-19.8Q282.73-17.65 282.4-15.5 282.08-13.35 281.9-11.6 281.73-9.85 281.73-8.85L281.73-8.85Q281.73-6.75 282.5-6.05 283.28-5.35 284.38-5.35L284.38-5.35Q285.38-5.35 286.18-5.75 286.98-6.15 287.33-6.7L287.33-6.7 287.83-6.55Q287.53-4.5 286.23-2.98 284.93-1.45 283.13-0.63 281.33 0.2 279.53 0.2ZM312.27 0.2L312.27 0.2Q310.87 0.2 309.72-0.3 308.57-0.8 308.02-1.55L308.02-1.55Q308.82-4.2 309.25-7.3 309.67-10.4 309.67-13.45L309.67-13.45Q309.67-17.25 308.97-20.58 308.27-23.9 306.85-25.95 305.42-28 303.17-28L303.17-28Q301.47-28 299.32-26.6L299.32-26.6 298.82-26.8Q299.07-31.1 300.97-33.55 302.87-36 305.77-36L305.77-36Q307.87-36 309.6-34.8 311.32-33.6 312.65-31.6 313.97-29.6 314.95-27.1 315.92-24.6 316.52-22L316.52-22Q317.62-27.15 319.37-30.28 321.12-33.4 323.12-34.83 325.12-36.25 326.97-36.25L326.97-36.25Q329.32-36.25 331-34.35 332.67-32.45 332.67-29.45L332.67-29.45Q332.67-27.8 332.07-25.9L332.07-25.9Q330.62-26.7 328.97-26.7L328.97-26.7Q326.82-26.7 324.67-25.43 322.52-24.15 320.75-21.83 318.97-19.5 317.97-16.35L317.97-16.35Q318.12-13.75 318.12-11.85L318.12-11.85Q318.12-9.25 317.82-6.98 317.52-4.7 316.72-1.65L316.72-1.65Q315.77-0.7 314.6-0.25 313.42 0.2 312.27 0.2ZM344.12 0.35L344.12 0.35Q340.37 0.35 337.92-1.15 335.47-2.65 334.29-5.13 333.12-7.6 333.12-10.4L333.12-10.4Q333.12-13.05 334.09-15.7 335.07-18.35 336.94-20.53 338.82-22.7 341.52-24.03 344.22-25.35 347.72-25.35L347.72-25.35Q351.47-25.35 353.89-23.83 356.32-22.3 357.49-19.8 358.67-17.3 358.67-14.45L358.67-14.45Q358.67-11.85 357.72-9.22 356.77-6.6 354.89-4.42 353.02-2.25 350.32-0.95 347.62 0.35 344.12 0.35ZM345.47-3.9L345.47-3.9Q346.82-3.9 347.72-5.3 348.62-6.7 349.07-8.88 349.52-11.05 349.52-13.3L349.52-13.3Q349.52-15.3 349.14-17.07 348.77-18.85 348.02-19.98 347.27-21.1 346.07-21.1L346.07-21.1Q344.77-21.1 343.84-19.7 342.92-18.3 342.47-16.15 342.02-14 342.02-11.7L342.02-11.7Q342.02-9.7 342.39-7.93 342.77-6.15 343.52-5.03 344.27-3.9 345.47-3.9ZM368.22 0.2L368.22 0.2Q365.97 0.2 364.44-1.65 362.92-3.5 362.92-6.6L362.92-6.6Q362.92-8.3 363.32-10.25 363.72-12.2 364.12-13.95L364.12-13.95Q364.47-15.25 364.69-16.38 364.92-17.5 364.92-18.2L364.92-18.2Q364.92-19.1 364.54-19.5 364.17-19.9 363.67-19.9L363.67-19.9Q363.17-19.9 362.67-19.58 362.17-19.25 361.87-18.6L361.87-18.6 361.47-18.75Q361.47-20.8 362.47-22.25 363.47-23.7 365.02-24.45 366.57-25.2 368.17-25.2L368.17-25.2Q369.47-25.2 370.67-24.68 371.87-24.15 372.64-23.05 373.42-21.95 373.42-20.3L373.42-20.3Q373.42-19.3 373.14-17.9 372.87-16.5 372.52-15L372.52-15Q372.17-13.45 371.84-11.88 371.52-10.3 371.52-9.1L371.52-9.1Q371.52-8 371.87-7.3 372.22-6.6 372.92-6.6L372.92-6.6Q374.22-6.6 375.84-9 377.47-11.4 378.47-15.45L378.47-15.45Q378.67-16.25 378.82-17.15 378.97-18.05 378.97-19L378.97-19Q378.97-19.75 378.87-20.53 378.77-21.3 378.57-22.1L378.57-22.1 378.57-22.45Q379.37-23.8 380.64-24.5 381.92-25.2 383.22-25.2L383.22-25.2Q384.97-25.2 386.37-24 387.77-22.8 387.77-20.5L387.77-20.5Q387.77-19.15 387.27-17.38 386.77-15.6 386.17-13.7L386.17-13.7Q385.57-11.85 385.07-10.05 384.57-8.25 384.57-6.85L384.57-6.85Q384.57-4.8 386.02-4.8L386.02-4.8Q386.42-4.8 386.99-5.03 387.57-5.25 388.07-5.95L388.07-5.95 388.42-5.85Q388.42-4.05 387.44-2.68 386.47-1.3 384.97-0.55 383.47 0.2 381.87 0.2L381.87 0.2Q379.82 0.2 378.19-1.3 376.57-2.8 376.57-6.2L376.57-6.2 376.57-6.3Q374.52-2.8 372.32-1.3 370.12 0.2 368.22 0.2ZM412.36 0.3L412.36 0.3Q409.21 0.3 406.94-0.98 404.66-2.25 403.19-4.48 401.71-6.7 401.04-9.53 400.36-12.35 400.46-15.4L400.46-15.4Q400.66-20.85 402.46-24.8 404.26-28.75 407.01-31.3 409.76-33.85 412.94-35.08 416.11-36.3 419.06-36.3L419.06-36.3Q421.56-36.3 423.59-35.48 425.61-34.65 426.81-33.08 428.01-31.5 428.01-29.25L428.01-29.25Q428.01-27.5 426.99-25.88 425.96-24.25 423.89-23.23 421.81-22.2 418.56-22.2L418.56-22.2Q419.11-23.8 419.36-25 419.61-26.2 419.61-27.05L419.61-27.05Q419.61-28.8 418.81-29.43 418.01-30.05 416.81-30.05L416.81-30.05Q415.36-30.05 414.06-29 412.76-27.95 411.74-26.18 410.71-24.4 410.11-22.25 409.51-20.1 409.41-17.9L409.41-17.9Q409.21-12.35 411.01-9.5 412.81-6.65 415.66-6.65L415.66-6.65Q417.86-6.65 420.54-8.45 423.21-10.25 425.81-13.9L425.81-13.9 426.46-13.6Q425.81-9.1 423.61-6 421.41-2.9 418.44-1.3 415.46 0.3 412.36 0.3ZM448.16 0.25L448.16 0.25Q446.41 0.25 445.11-0.9 443.81-2.05 443.81-4.65L443.81-4.65Q443.81-4.9 443.81-5.15 443.81-5.4 443.86-5.65L443.86-5.65Q442.36-2.65 440.48-1.23 438.61 0.2 436.71 0.2L436.71 0.2Q434.96 0.2 433.41-1.03 431.86-2.25 430.91-4.65 429.96-7.05 429.96-10.45L429.96-10.45Q429.96-13.95 430.93-16.7 431.91-19.45 433.51-21.35 435.11-23.25 437.01-24.23 438.91-25.2 440.71-25.2L440.71-25.2Q442.71-25.2 444.31-23.98 445.91-22.75 446.51-20.1L446.51-20.1Q446.66-20.95 446.73-21.65 446.81-22.35 446.81-22.6L446.81-22.6Q446.86-23.95 448.18-24.6 449.51-25.25 451.11-25.25L451.11-25.25Q452.51-25.25 453.76-24.7 455.01-24.15 455.46-22.85L455.46-22.85 455.56-22.55Q454.96-21.2 454.36-19.3 453.76-17.4 453.26-15.33 452.76-13.25 452.46-11.28 452.16-9.3 452.16-7.8L452.16-7.8Q452.16-6.15 452.51-5.53 452.86-4.9 453.36-4.9L453.36-4.9Q454.21-4.9 454.91-6.1L454.91-6.1 455.31-5.9Q455.31-4.2 454.21-2.8 453.11-1.4 451.46-0.58 449.81 0.25 448.16 0.25ZM440.01-6.1L440.01-6.1Q441.31-6.1 442.88-8.43 444.46-10.75 445.61-15.1L445.61-15.1Q445.71-15.55 445.81-15.98 445.91-16.4 445.96-16.8L445.96-16.8Q445.16-18.65 444.28-19.43 443.41-20.2 442.56-20.2L442.56-20.2Q441.31-20.2 440.23-18.88 439.16-17.55 438.48-15.55 437.81-13.55 437.81-11.55L437.81-11.55Q437.81-8.8 438.43-7.45 439.06-6.1 440.01-6.1ZM464.01 0.15L464.01 0.15Q462.16 0.15 460.66-1.33 459.16-2.8 459.16-5.45L459.16-5.45Q459.16-6.75 459.51-8.4 459.86-10.05 460.28-11.75 460.71-13.45 461.06-14.95 461.41-16.45 461.41-17.4L461.41-17.4Q461.41-18.4 461.01-18.98 460.61-19.55 459.96-19.55L459.96-19.55Q459.11-19.55 458.11-18.55L458.11-18.55 457.81-18.75Q457.76-19.55 458.16-20.65 458.56-21.75 459.38-22.78 460.21-23.8 461.51-24.5 462.81-25.2 464.61-25.2L464.61-25.2Q467.26-25.2 468.53-23.68 469.81-22.15 469.81-19.95L469.81-19.95Q469.81-19.15 469.66-18.4L469.66-18.4Q470.71-19.95 472.26-21.53 473.81-23.1 475.68-24.15 477.56-25.2 479.56-25.2L479.56-25.2Q481.91-25.2 482.76-23.7 483.61-22.2 483.61-19.95L483.61-19.95Q483.61-17.85 483.16-15.45 482.71-13.05 482.26-10.83 481.81-8.6 481.81-7.1L481.81-7.1Q481.81-5.1 482.96-5.1L482.96-5.1Q483.56-5.1 484.01-5.48 484.46-5.85 484.61-6.2L484.61-6.2 484.96-6.05Q484.96-4.2 483.93-2.8 482.91-1.4 481.36-0.63 479.81 0.15 478.21 0.15L478.21 0.15Q476.26 0.15 474.76-1.2 473.26-2.55 473.26-5.6L473.26-5.6Q473.26-7.4 473.73-9.5 474.21-11.6 474.66-13.55 475.11-15.5 475.11-16.75L475.11-16.75Q475.11-17.5 474.83-17.93 474.56-18.35 473.86-18.35L473.86-18.35Q472.71-18.35 471.33-17.3 469.96-16.25 468.98-14.5 468.01-12.75 468.01-10.65L468.01-10.65Q468.01-9.3 468.33-8.05 468.66-6.8 468.66-5.35L468.66-5.35Q468.66-2.65 467.26-1.25 465.86 0.15 464.01 0.15ZM508.95 0.3L508.95 0.3Q505.8 0.3 503.53-0.98 501.25-2.25 499.78-4.48 498.3-6.7 497.63-9.53 496.95-12.35 497.05-15.4L497.05-15.4Q497.25-20.85 499.05-24.8 500.85-28.75 503.6-31.3 506.35-33.85 509.53-35.08 512.7-36.3 515.65-36.3L515.65-36.3Q518.15-36.3 520.18-35.48 522.2-34.65 523.4-33.08 524.6-31.5 524.6-29.25L524.6-29.25Q524.6-27.5 523.58-25.88 522.55-24.25 520.48-23.23 518.4-22.2 515.15-22.2L515.15-22.2Q515.7-23.8 515.95-25 516.2-26.2 516.2-27.05L516.2-27.05Q516.2-28.8 515.4-29.43 514.6-30.05 513.4-30.05L513.4-30.05Q511.95-30.05 510.65-29 509.35-27.95 508.33-26.18 507.3-24.4 506.7-22.25 506.1-20.1 506-17.9L506-17.9Q505.8-12.35 507.6-9.5 509.4-6.65 512.25-6.65L512.25-6.65Q514.45-6.65 517.13-8.45 519.8-10.25 522.4-13.9L522.4-13.9 523.05-13.6Q522.4-9.1 520.2-6 518-2.9 515.02-1.3 512.05 0.3 508.95 0.3ZM537.45 0.35L537.45 0.35Q533.7 0.35 531.25-1.15 528.8-2.65 527.62-5.13 526.45-7.6 526.45-10.4L526.45-10.4Q526.45-13.05 527.42-15.7 528.4-18.35 530.27-20.53 532.15-22.7 534.85-24.03 537.55-25.35 541.05-25.35L541.05-25.35Q544.8-25.35 547.22-23.83 549.65-22.3 550.82-19.8 552-17.3 552-14.45L552-14.45Q552-11.85 551.05-9.22 550.1-6.6 548.22-4.42 546.35-2.25 543.65-0.95 540.95 0.35 537.45 0.35ZM538.8-3.9L538.8-3.9Q540.15-3.9 541.05-5.3 541.95-6.7 542.4-8.88 542.85-11.05 542.85-13.3L542.85-13.3Q542.85-15.3 542.47-17.07 542.1-18.85 541.35-19.98 540.6-21.1 539.4-21.1L539.4-21.1Q538.1-21.1 537.17-19.7 536.25-18.3 535.8-16.15 535.35-14 535.35-11.7L535.35-11.7Q535.35-9.7 535.72-7.93 536.1-6.15 536.85-5.03 537.6-3.9 538.8-3.9ZM565.79 0.35L565.79 0.35Q562.04 0.35 559.6-1.15 557.14-2.65 555.97-5.13 554.79-7.6 554.79-10.4L554.79-10.4Q554.79-13.05 555.77-15.7 556.75-18.35 558.62-20.53 560.5-22.7 563.19-24.03 565.89-25.35 569.39-25.35L569.39-25.35Q573.14-25.35 575.57-23.83 578-22.3 579.17-19.8 580.35-17.3 580.35-14.45L580.35-14.45Q580.35-11.85 579.39-9.22 578.44-6.6 576.57-4.42 574.69-2.25 572-0.95 569.29 0.35 565.79 0.35ZM567.14-3.9L567.14-3.9Q568.5-3.9 569.39-5.3 570.29-6.7 570.75-8.88 571.19-11.05 571.19-13.3L571.19-13.3Q571.19-15.3 570.82-17.07 570.44-18.85 569.69-19.98 568.94-21.1 567.75-21.1L567.75-21.1Q566.44-21.1 565.52-19.7 564.6-18.3 564.14-16.15 563.69-14 563.69-11.7L563.69-11.7Q563.69-9.7 564.07-7.93 564.44-6.15 565.19-5.03 565.94-3.9 567.14-3.9ZM601.74 0.25L601.74 0.25Q600.09 0.25 598.64-0.53 597.19-1.3 596.29-2.8 595.39-4.3 595.39-6.4L595.39-6.4Q595.39-8.55 596.44-11.25L596.44-11.25Q597.24-11.65 598.34-12.5 599.44-13.35 600.29-14.43 601.14-15.5 601.14-16.55L601.14-16.55Q601.14-17.5 600.42-18.05 599.69-18.6 598.64-18.6L598.64-18.6Q597.34-18.6 596.19-17.8 595.04-17 594.17-15.73 593.29-14.45 592.82-12.98 592.34-11.5 592.34-10.15L592.34-10.15Q592.34-8.85 592.67-7.73 592.99-6.6 592.99-5.15L592.99-5.15Q592.99-2.9 591.79-1.35 590.59 0.2 588.24 0.2L588.24 0.2Q586.09 0.2 584.79-1.25 583.49-2.7 583.49-5.2L583.49-5.2Q583.49-6.5 583.82-8.65 584.14-10.8 584.64-13.4 585.14-16 585.62-18.78 586.09-21.55 586.42-24.13 586.74-26.7 586.74-28.75L586.74-28.75Q586.74-29.85 586.62-30.78 586.49-31.7 586.09-32.25L586.09-32.25 586.09-32.55Q587.19-33.8 588.49-34.4 589.79-35 591.04-35L591.04-35Q592.94-35 594.29-33.65 595.64-32.3 595.64-29.65L595.64-29.65Q595.64-28.25 595.27-26.25 594.89-24.25 594.37-22.05 593.84-19.85 593.29-17.85L593.29-17.85Q594.39-19.45 595.79-21.15 597.19-22.85 598.94-24.03 600.69-25.2 602.89-25.2L602.89-25.2Q605.44-25.2 606.89-23.58 608.34-21.95 608.34-19.7L608.34-19.7Q608.34-17.45 606.72-14.9 605.09-12.35 601.29-10.6L601.29-10.6Q601.94-9.15 603.09-8 604.24-6.85 605.62-6.23 606.99-5.6 608.19-5.6L608.19-5.6Q608.79-5.6 609.24-5.8L609.24-5.8 609.54-5.5Q608.29-2.6 606.12-1.18 603.94 0.25 601.74 0.25ZM617.79-11.4L617.79-11.4Q616.69-11.4 615.81-11.83 614.94-12.25 614.79-13.25L614.79-13.25Q614.89-15.45 615.21-18.28 615.54-21.1 615.99-24.05 616.44-27 616.89-29.7 617.34-32.4 617.69-34.43 618.04-36.45 618.19-37.35L618.19-37.35Q618.34-38.15 619.54-38.7 620.74-39.25 622.29-39.25L622.29-39.25Q623.99-39.25 625.61-38.4 627.24-37.55 627.89-35.4L627.89-35.4Q627.19-34.3 626.14-31.9 625.09-29.5 624.04-26.33 622.99-23.15 622.24-19.58 621.49-16 621.34-12.45L621.34-12.45Q620.79-12 619.79-11.7 618.79-11.4 617.79-11.4ZM617.04 0.3L617.04 0.3Q614.94 0.3 613.59-1 612.24-2.3 612.24-4.25L612.24-4.25Q612.24-6.35 613.81-7.88 615.39-9.4 617.64-9.4L617.64-9.4Q619.74-9.4 621.11-8.08 622.49-6.75 622.49-4.8L622.49-4.8Q622.49-2.7 620.89-1.2 619.29 0.3 617.04 0.3Z" opacity="1" transform="matrix(1,0,0,1,0,0)" fill="#252422" class="slogan-text-1" data-fill-palette-color="secondary" id="text-1"></path></svg></g></svg></g></svg></g></svg></g><g><svg viewBox="0 0 73.65634944772614 98.20846622570822" height="98.20846622570822" width="73.65634944772614"><g><svg xmlns="http://www.w3.org/2000/svg" viewBox="18.5 7.9999996390453045 60.000000360954715 80.0000007219094" x="0" y="0" height="98.20846622570822" width="73.65634944772614" class="icon-icon-0" data-fill-palette-color="accent" id="icon-0"><g fill="#beee62" data-fill-palette-color="accent"><path d="M76.5 16h-6V10a1.999 1.999 0 0 0-2-2h-44a6.007 6.007 0 0 0-6 6V82a6.007 6.007 0 0 0 6 6h52a1.999 1.999 0 0 0 2-2V18A1.999 1.999 0 0 0 76.5 16Zm-52-4h42v4h-42a2 2 0 0 1 0-4Zm50 72h-50a2.003 2.003 0 0 1-2-2V19.632A5.931 5.931 0 0 0 24.5 20h50Z" fill="#beee62" data-fill-palette-color="accent"></path><path d="M52.5 28a1.999 1.999 0 0 0-2 2V74a2 2 0 0 0 4 0V56h10a1.999 1.999 0 0 0 2-2V42A14.017 14.017 0 0 0 52.5 28Zm10 24h-8V32.201A10.017 10.017 0 0 1 62.5 42Z" fill="#beee62" data-fill-palette-color="accent"></path><path d="M38.5 28c-5.152 0-8 8.277-8 14 0 6.066 2.914 8.881 6 9.704V74a2 2 0 0 0 4 0V51.704c3.086-0.823 6-3.638 6-9.704C46.5 36.277 43.652 28 38.5 28Zm0 20c-3.48 0-4-3.76-4-6 0-5.473 2.648-10 4-10s4 4.527 4 10C42.5 44.24 41.98 48 38.5 48Z" fill="#beee62" data-fill-palette-color="accent"></path></g></svg></g></svg></g></svg></g><defs></defs></svg><rect width="395.52" height="80.9321844000848" fill="none" stroke="none" visibility="hidden"></rect></g></svg></g></svg>