<svg xmlns="http://www.w3.org/2000/svg" version="1.1" xmlns:xlink="http://www.w3.org/1999/xlink" xmlns:svgjs="http://svgjs.dev/svgjs" width="1500" height="1500" viewBox="0 0 1500 1500"><rect width="1500" height="1500" fill="#ffffff"></rect><g transform="matrix(0.6666666666666666,0,0,0.6666666666666666,249.39393939393938,680.6603623323014)"><svg viewBox="0 0 396 55" data-background-color="#f7f0f0" preserveAspectRatio="xMidYMid meet" height="208" width="1500" xmlns="http://www.w3.org/2000/svg" xmlns:xlink="http://www.w3.org/1999/xlink"><g id="tight-bounds" transform="matrix(1,0,0,1,0.2400000000000091,0.002500517236228461)"><svg viewBox="0 0 395.52 54.994998965527536" height="54.994998965527536" width="395.52"><g><svg viewBox="0 0 453.5964528792541 63.070227692307704" height="54.994998965527536" width="395.52"><g transform="matrix(1,0,0,1,58.076452879254134,8.71665230769231)"><svg viewBox="0 0 395.52 45.63692307692308" height="45.63692307692308" width="395.52"><g id="textblocktransform"><svg viewBox="0 0 395.52 45.63692307692308" height="45.63692307692308" width="395.52" id="textblock"><g><svg viewBox="0 0 395.52 45.63692307692308" height="45.63692307692308" width="395.52"><g transform="matrix(1,0,0,1,0,0)"><svg width="395.52" viewBox="2.05 -38.35 335.37 38.7" height="45.63692307692308" data-palette-color="#252422"><path d="M10 0.25L10 0.25Q7.25 0.25 5.4-2.05 3.55-4.35 3.55-8.35L3.55-8.35Q3.55-10.4 4-12.98 4.45-15.55 5.05-18.2 5.65-20.85 6.1-23.18 6.55-25.5 6.55-27.05L6.55-27.05Q6.55-28.15 6.25-28.78 5.95-29.4 5.15-29.4L5.15-29.4Q4.55-29.4 3.75-28.85 2.95-28.3 2.55-26.7L2.55-26.7 2.05-26.9Q2.05-31.2 4.03-33.7 6-36.2 9.35-36.2L9.35-36.2Q12.5-36.2 13.73-34.15 14.95-32.1 14.95-29L14.95-29Q14.95-26.7 14.48-24.1 14-21.5 13.4-18.93 12.8-16.35 12.33-14.15 11.85-11.95 11.85-10.5L11.85-10.5Q11.85-8.35 12.95-8.35L12.95-8.35Q13.6-8.35 14.7-9.28 15.8-10.2 17.03-11.83 18.25-13.45 19.4-15.53 20.55-17.6 21.35-19.9L21.35-19.9Q21.25-21 21.2-22.03 21.15-23.05 21.15-23.85L21.15-23.85Q21.15-27.85 21.93-30.3 22.7-32.75 23.9-33.9 25.1-35.05 26.35-35.05L26.35-35.05Q28.1-35.05 29.5-33.13 30.9-31.2 30.9-27.9L30.9-27.9Q30.9-25.85 30.15-23.33 29.4-20.8 27.65-17.95L27.65-17.95Q27.5-13.65 28.6-11 29.7-8.35 31.35-8.35L31.35-8.35Q32.4-8.35 33.63-9.43 34.85-10.5 35.9-12.43 36.95-14.35 37.63-16.9 38.3-19.45 38.3-22.35L38.3-22.35Q38.3-24.05 38.08-25.9 37.85-27.75 37.52-29.45 37.2-31.15 36.85-32.25L36.85-32.25Q36.85-33.1 37.58-33.98 38.3-34.85 39.45-35.48 40.6-36.1 41.8-36.1L41.8-36.1Q43-36.1 44.1-35.25 45.2-34.4 45.9-32.27 46.6-30.15 46.6-26.25L46.6-26.25Q46.6-20.8 45.2-16.03 43.8-11.25 41.43-7.6 39.05-3.95 36.2-1.88 33.35 0.2 30.4 0.2L30.4 0.2Q27.8 0.2 26.1-1.4 24.4-3 23.45-5.7 22.5-8.4 22.1-11.7L22.1-11.7Q20.3-7.4 18.2-4.78 16.1-2.15 14-0.95 11.9 0.25 10 0.25ZM53.25 0.2L53.25 0.2Q51.1 0.2 49.8-1.25 48.5-2.7 48.5-5.2L48.5-5.2Q48.5-6.55 48.85-8.72 49.2-10.9 49.72-13.53 50.25-16.15 50.75-18.88 51.25-21.6 51.6-24.15 51.95-26.7 51.95-28.65L51.95-28.65Q51.95-31.1 51.3-32.2L51.3-32.2 51.3-32.5Q52.4-33.75 53.7-34.35 55-34.95 56.25-34.95L56.25-34.95Q58.15-34.95 59.5-33.6 60.85-32.25 60.85-29.55L60.85-29.55Q60.85-28.1 60.45-26 60.05-23.9 59.5-21.6 58.95-19.3 58.4-17.3L58.4-17.3Q59.35-19.15 60.92-20.98 62.5-22.8 64.52-24 66.55-25.2 68.75-25.2L68.75-25.2Q71.25-25.2 72.12-23.65 73-22.1 73-19.8L73-19.8Q73-17.7 72.55-15.33 72.1-12.95 71.65-10.78 71.2-8.6 71.2-7.15L71.2-7.15Q71.2-5.05 72.45-5.05L72.45-5.05Q73-5.05 73.42-5.38 73.85-5.7 74.05-6.1L74.05-6.1 74.4-5.85Q74.4-3.9 73.45-2.55 72.5-1.2 71.02-0.5 69.55 0.2 68 0.2L68 0.2Q65.95 0.2 64.3-1.18 62.65-2.55 62.65-5.65L62.65-5.65Q62.65-7.4 63.12-9.45 63.6-11.5 64.05-13.43 64.5-15.35 64.5-16.65L64.5-16.65Q64.5-18.35 63.3-18.35L63.3-18.35Q62.2-18.35 60.9-17.25 59.6-16.15 58.62-14.5 57.65-12.85 57.35-11.25L57.35-11.25Q57.25-10.85 57.25-10.3L57.25-10.3Q57.25-9.05 57.62-7.9 58-6.75 58-5.2L58-5.2Q58-2.9 56.8-1.35 55.6 0.2 53.25 0.2ZM95.25 0.25L95.25 0.25Q93.5 0.25 92.2-0.9 90.9-2.05 90.9-4.65L90.9-4.65Q90.9-4.9 90.9-5.15 90.9-5.4 90.95-5.65L90.95-5.65Q89.45-2.65 87.57-1.23 85.7 0.2 83.8 0.2L83.8 0.2Q82.05 0.2 80.5-1.03 78.95-2.25 78-4.65 77.05-7.05 77.05-10.45L77.05-10.45Q77.05-13.95 78.02-16.7 79-19.45 80.59-21.35 82.2-23.25 84.09-24.23 86-25.2 87.8-25.2L87.8-25.2Q89.8-25.2 91.4-23.98 93-22.75 93.59-20.1L93.59-20.1Q93.75-20.95 93.82-21.65 93.9-22.35 93.9-22.6L93.9-22.6Q93.95-23.95 95.27-24.6 96.59-25.25 98.2-25.25L98.2-25.25Q99.59-25.25 100.84-24.7 102.09-24.15 102.55-22.85L102.55-22.85 102.65-22.55Q102.05-21.2 101.45-19.3 100.84-17.4 100.34-15.33 99.84-13.25 99.55-11.28 99.25-9.3 99.25-7.8L99.25-7.8Q99.25-6.15 99.59-5.53 99.95-4.9 100.45-4.9L100.45-4.9Q101.3-4.9 102-6.1L102-6.1 102.4-5.9Q102.4-4.2 101.3-2.8 100.2-1.4 98.55-0.58 96.9 0.25 95.25 0.25ZM87.09-6.1L87.09-6.1Q88.4-6.1 89.97-8.43 91.55-10.75 92.7-15.1L92.7-15.1Q92.8-15.55 92.9-15.98 93-16.4 93.05-16.8L93.05-16.8Q92.25-18.65 91.37-19.43 90.5-20.2 89.65-20.2L89.65-20.2Q88.4-20.2 87.32-18.88 86.25-17.55 85.57-15.55 84.89-13.55 84.89-11.55L84.89-11.55Q84.89-8.8 85.52-7.45 86.15-6.1 87.09-6.1ZM112.34 0.2L112.34 0.2Q110.74 0.2 109.32-0.53 107.89-1.25 107.02-2.8 106.14-4.35 106.14-6.75L106.14-6.75Q106.14-8.05 106.39-10.15 106.64-12.25 107.07-14.75 107.49-17.25 107.94-19.75L107.94-19.75Q106.94-19.7 106.02-19.55 105.09-19.4 104.19-19.2L104.19-19.2 104.09-19.55Q105.09-20.75 106.19-21.6 107.29-22.45 108.49-23L108.49-23Q109.14-26.3 109.59-28.73 110.04-31.15 110.04-31.6L110.04-31.6Q110.04-32.45 111.37-33 112.69-33.55 114.34-33.55L114.34-33.55Q115.79-33.55 117.07-33 118.34-32.45 118.79-31.15L118.79-31.15Q118.49-30.85 117.94-28.93 117.39-27 116.79-24.25L116.79-24.25Q117.74-24.2 118.74-24.15 119.74-24.1 120.79-24L120.79-24Q120.89-23.7 120.94-23.35 120.99-23 120.99-22.6L120.99-22.6Q120.99-21.85 120.77-20.98 120.54-20.1 120.24-19.4L120.24-19.4Q119.04-19.5 117.99-19.63 116.94-19.75 115.94-19.8L115.94-19.8Q115.54-17.65 115.22-15.5 114.89-13.35 114.72-11.6 114.54-9.85 114.54-8.85L114.54-8.85Q114.54-6.75 115.32-6.05 116.09-5.35 117.19-5.35L117.19-5.35Q118.19-5.35 118.99-5.75 119.79-6.15 120.14-6.7L120.14-6.7 120.64-6.55Q120.34-4.5 119.04-2.98 117.74-1.45 115.94-0.63 114.14 0.2 112.34 0.2ZM143.04 0.2L143.04 0.2Q141.49 0.2 140.31-0.6 139.14-1.4 139.19-3L139.19-3Q139.29-5.8 139.61-9.2 139.94-12.6 140.39-16.13 140.84-19.65 141.31-22.9 141.79-26.15 142.19-28.7L142.19-28.7Q141.29-28.8 140.44-28.85 139.59-28.9 138.89-28.9L138.89-28.9Q136.79-28.9 135.11-28.5 133.44-28.1 132.29-27.1L132.29-27.1Q132.29-30.25 132.81-32.23 133.34-34.2 134.76-35.1 136.19-36 138.94-36L138.94-36Q140.94-36 143.41-35.68 145.89-35.35 148.44-35 150.99-34.65 153.19-34.65L153.19-34.65Q154.99-34.65 156.41-35 157.84-35.35 158.59-36.25L158.59-36.25Q159.69-35.9 160.29-34.73 160.89-33.55 160.89-32.15L160.89-32.15Q160.89-30.9 160.34-29.73 159.79-28.55 158.59-27.78 157.39-27 155.34-27L155.34-27Q154.39-27 153.01-27.18 151.64-27.35 150.09-27.55L150.09-27.55Q149.54-24.55 148.96-20.38 148.39-16.2 148.01-11.4 147.64-6.6 147.54-1.65L147.54-1.65Q146.64-0.7 145.41-0.25 144.19 0.2 143.04 0.2ZM172.34 0.35L172.34 0.35Q168.59 0.35 166.14-1.15 163.69-2.65 162.51-5.13 161.34-7.6 161.34-10.4L161.34-10.4Q161.34-13.05 162.31-15.7 163.29-18.35 165.16-20.53 167.04-22.7 169.74-24.03 172.44-25.35 175.94-25.35L175.94-25.35Q179.69-25.35 182.11-23.83 184.54-22.3 185.71-19.8 186.89-17.3 186.89-14.45L186.89-14.45Q186.89-11.85 185.94-9.22 184.99-6.6 183.11-4.42 181.24-2.25 178.54-0.95 175.84 0.35 172.34 0.35ZM173.69-3.9L173.69-3.9Q175.04-3.9 175.94-5.3 176.84-6.7 177.29-8.88 177.74-11.05 177.74-13.3L177.74-13.3Q177.74-15.3 177.36-17.07 176.99-18.85 176.24-19.98 175.49-21.1 174.29-21.1L174.29-21.1Q172.99-21.1 172.06-19.7 171.14-18.3 170.69-16.15 170.24-14 170.24-11.7L170.24-11.7Q170.24-9.7 170.61-7.93 170.99-6.15 171.74-5.03 172.49-3.9 173.69-3.9ZM211.13 0.3L211.13 0.3Q207.98 0.3 205.71-0.98 203.43-2.25 201.96-4.48 200.48-6.7 199.81-9.53 199.13-12.35 199.23-15.4L199.23-15.4Q199.43-20.85 201.23-24.8 203.03-28.75 205.78-31.3 208.53-33.85 211.71-35.08 214.88-36.3 217.83-36.3L217.83-36.3Q220.33-36.3 222.36-35.48 224.38-34.65 225.58-33.08 226.78-31.5 226.78-29.25L226.78-29.25Q226.78-27.5 225.76-25.88 224.73-24.25 222.66-23.23 220.58-22.2 217.33-22.2L217.33-22.2Q217.88-23.8 218.13-25 218.38-26.2 218.38-27.05L218.38-27.05Q218.38-28.8 217.58-29.43 216.78-30.05 215.58-30.05L215.58-30.05Q214.13-30.05 212.83-29 211.53-27.95 210.51-26.18 209.48-24.4 208.88-22.25 208.28-20.1 208.18-17.9L208.18-17.9Q207.98-12.35 209.78-9.5 211.58-6.65 214.43-6.65L214.43-6.65Q216.63-6.65 219.31-8.45 221.98-10.25 224.58-13.9L224.58-13.9 225.23-13.6Q224.58-9.1 222.38-6 220.18-2.9 217.21-1.3 214.23 0.3 211.13 0.3ZM239.63 0.35L239.63 0.35Q235.88 0.35 233.43-1.15 230.98-2.65 229.8-5.13 228.63-7.6 228.63-10.4L228.63-10.4Q228.63-13.05 229.6-15.7 230.58-18.35 232.45-20.53 234.33-22.7 237.03-24.03 239.73-25.35 243.23-25.35L243.23-25.35Q246.98-25.35 249.4-23.83 251.83-22.3 253-19.8 254.18-17.3 254.18-14.45L254.18-14.45Q254.18-11.85 253.23-9.22 252.28-6.6 250.4-4.42 248.53-2.25 245.83-0.95 243.13 0.35 239.63 0.35ZM240.98-3.9L240.98-3.9Q242.33-3.9 243.23-5.3 244.13-6.7 244.58-8.88 245.03-11.05 245.03-13.3L245.03-13.3Q245.03-15.3 244.65-17.07 244.28-18.85 243.53-19.98 242.78-21.1 241.58-21.1L241.58-21.1Q240.28-21.1 239.35-19.7 238.43-18.3 237.98-16.15 237.53-14 237.53-11.7L237.53-11.7Q237.53-9.7 237.9-7.93 238.28-6.15 239.03-5.03 239.78-3.9 240.98-3.9ZM267.98 0.35L267.98 0.35Q264.23 0.35 261.78-1.15 259.33-2.65 258.15-5.13 256.98-7.6 256.98-10.4L256.98-10.4Q256.98-13.05 257.95-15.7 258.93-18.35 260.8-20.53 262.68-22.7 265.38-24.03 268.08-25.35 271.58-25.35L271.58-25.35Q275.33-25.35 277.75-23.83 280.18-22.3 281.35-19.8 282.53-17.3 282.53-14.45L282.53-14.45Q282.53-11.85 281.58-9.22 280.63-6.6 278.75-4.42 276.88-2.25 274.18-0.95 271.48 0.35 267.98 0.35ZM269.33-3.9L269.33-3.9Q270.68-3.9 271.58-5.3 272.48-6.7 272.93-8.88 273.38-11.05 273.38-13.3L273.38-13.3Q273.38-15.3 273-17.07 272.63-18.85 271.88-19.98 271.13-21.1 269.93-21.1L269.93-21.1Q268.63-21.1 267.7-19.7 266.78-18.3 266.33-16.15 265.88-14 265.88-11.7L265.88-11.7Q265.88-9.7 266.25-7.93 266.63-6.15 267.38-5.03 268.13-3.9 269.33-3.9ZM303.92 0.25L303.92 0.25Q302.27 0.25 300.82-0.53 299.37-1.3 298.47-2.8 297.57-4.3 297.57-6.4L297.57-6.4Q297.57-8.55 298.62-11.25L298.62-11.25Q299.42-11.65 300.52-12.5 301.62-13.35 302.47-14.43 303.32-15.5 303.32-16.55L303.32-16.55Q303.32-17.5 302.6-18.05 301.87-18.6 300.82-18.6L300.82-18.6Q299.52-18.6 298.37-17.8 297.22-17 296.35-15.73 295.47-14.45 295-12.98 294.52-11.5 294.52-10.15L294.52-10.15Q294.52-8.85 294.85-7.73 295.17-6.6 295.17-5.15L295.17-5.15Q295.17-2.9 293.97-1.35 292.77 0.2 290.42 0.2L290.42 0.2Q288.27 0.2 286.97-1.25 285.67-2.7 285.67-5.2L285.67-5.2Q285.67-6.5 286-8.65 286.32-10.8 286.82-13.4 287.32-16 287.8-18.78 288.27-21.55 288.6-24.13 288.92-26.7 288.92-28.75L288.92-28.75Q288.92-29.85 288.8-30.78 288.67-31.7 288.27-32.25L288.27-32.25 288.27-32.55Q289.37-33.8 290.67-34.4 291.97-35 293.22-35L293.22-35Q295.12-35 296.47-33.65 297.82-32.3 297.82-29.65L297.82-29.65Q297.82-28.25 297.45-26.25 297.07-24.25 296.55-22.05 296.02-19.85 295.47-17.85L295.47-17.85Q296.57-19.45 297.97-21.15 299.37-22.85 301.12-24.03 302.87-25.2 305.07-25.2L305.07-25.2Q307.62-25.2 309.07-23.58 310.52-21.95 310.52-19.7L310.52-19.7Q310.52-17.45 308.9-14.9 307.27-12.35 303.47-10.6L303.47-10.6Q304.12-9.15 305.27-8 306.42-6.85 307.8-6.23 309.17-5.6 310.37-5.6L310.37-5.6Q310.97-5.6 311.42-5.8L311.42-5.8 311.72-5.5Q310.47-2.6 308.3-1.18 306.12 0.25 303.92 0.25ZM322.97-11.4L322.97-11.4Q321.42-11.4 320.17-12.05 318.92-12.7 318.97-14.05L318.97-14.05Q319.07-17.1 320.12-18.9 321.17-20.7 322.65-21.75 324.12-22.8 325.47-23.55L325.47-23.55Q329.97-26.05 329.97-29.35L329.97-29.35Q329.97-31.15 328.97-32.02 327.97-32.9 326.67-32.9L326.67-32.9Q325.12-32.9 323.77-31.68 322.42-30.45 322.42-27.95L322.42-27.95Q322.42-26.7 322.87-25.1L322.87-25.1Q319.37-25.05 317.67-26.6 315.97-28.15 315.97-30.25L315.97-30.25Q315.97-32.1 317.27-33.98 318.57-35.85 321.05-37.1 323.52-38.35 327.12-38.35L327.12-38.35Q329.72-38.35 332.07-37.35 334.42-36.35 335.92-34.33 337.42-32.3 337.42-29.15L337.42-29.15Q337.42-26.25 336.37-24.5 335.32-22.75 333.75-21.7 332.17-20.65 330.57-19.8L330.57-19.8Q328.72-18.85 327.32-17.78 325.92-16.7 325.92-14.65L325.92-14.65Q325.92-14.2 326.02-13.65 326.12-13.1 326.32-12.45L326.32-12.45Q325.77-11.95 324.87-11.68 323.97-11.4 322.97-11.4ZM321.62 0.3L321.62 0.3Q319.57 0.3 318.22-1 316.87-2.3 316.87-4.2L316.87-4.2Q316.87-6.35 318.45-7.88 320.02-9.4 322.32-9.4L322.32-9.4Q324.37-9.4 325.75-8.1 327.12-6.8 327.12-4.9L327.12-4.9Q327.12-2.75 325.52-1.23 323.92 0.3 321.62 0.3Z" opacity="1" transform="matrix(1,0,0,1,0,0)" fill="#000000" class="wordmark-text-0" data-fill-palette-color="primary" id="text-0"></path></svg></g></svg></g></svg></g></svg></g><g><svg viewBox="0 0 47.302670626946444 63.070227692307704" height="63.070227692307704" width="47.302670626946444"><g><svg xmlns="http://www.w3.org/2000/svg" viewBox="18.5 7.9999996390453045 60.000000360954715 80.0000007219094" x="0" y="0" height="63.070227692307704" width="47.302670626946444" class="icon-icon-0" data-fill-palette-color="accent" id="icon-0"><g fill="#beee62" data-fill-palette-color="accent"><path d="M76.5 16h-6V10a1.999 1.999 0 0 0-2-2h-44a6.007 6.007 0 0 0-6 6V82a6.007 6.007 0 0 0 6 6h52a1.999 1.999 0 0 0 2-2V18A1.999 1.999 0 0 0 76.5 16Zm-52-4h42v4h-42a2 2 0 0 1 0-4Zm50 72h-50a2.003 2.003 0 0 1-2-2V19.632A5.931 5.931 0 0 0 24.5 20h50Z" fill="#000000" data-fill-palette-color="accent"></path><path d="M52.5 28a1.999 1.999 0 0 0-2 2V74a2 2 0 0 0 4 0V56h10a1.999 1.999 0 0 0 2-2V42A14.017 14.017 0 0 0 52.5 28Zm10 24h-8V32.201A10.017 10.017 0 0 1 62.5 42Z" fill="#000000" data-fill-palette-color="accent"></path><path d="M38.5 28c-5.152 0-8 8.277-8 14 0 6.066 2.914 8.881 6 9.704V74a2 2 0 0 0 4 0V51.704c3.086-0.823 6-3.638 6-9.704C46.5 36.277 43.652 28 38.5 28Zm0 20c-3.48 0-4-3.76-4-6 0-5.473 2.648-10 4-10s4 4.527 4 10C42.5 44.24 41.98 48 38.5 48Z" fill="#000000" data-fill-palette-color="accent"></path></g></svg></g></svg></g></svg></g><defs></defs></svg><rect width="395.52" height="54.994998965527536" fill="none" stroke="none" visibility="hidden"></rect></g></svg></g></svg>