<svg xmlns="http://www.w3.org/2000/svg" version="1.1" xmlns:xlink="http://www.w3.org/1999/xlink" xmlns:svgjs="http://svgjs.dev/svgjs" width="128" height="128" viewBox="0 0 128 128"><g transform="matrix(0.8046875,0,0,0.8046875,12.741727962675263,12.760752631578946)"><svg viewBox="0 0 95 95" data-background-color="#883d1a" preserveAspectRatio="xMidYMid meet" height="128" width="128" xmlns="http://www.w3.org/2000/svg" xmlns:xlink="http://www.w3.org/1999/xlink"><g id="tight-bounds" transform="matrix(1,0,0,1,-0.2229529752830075,-0.24049999999999727)"><svg viewBox="0 0 95.445905950566 95.481" height="95.481" width="95.445905950566"><g><svg viewBox="0 0 95.445905950566 95.481" height="95.481" width="95.445905950566"><g><svg viewBox="0 0 95.445905950566 95.481" height="95.481" width="95.445905950566"><g id="textblocktransform"><svg viewBox="0 0 95.445905950566 95.481" height="95.481" width="95.445905950566" id="textblock"><g><svg viewBox="0 0 95.445905950566 95.481" height="95.481" width="95.445905950566"><g><svg viewBox="0 0 95.445905950566 95.481" height="95.481" width="95.445905950566"><g><svg xmlns="http://www.w3.org/2000/svg" xmlns:xlink="http://www.w3.org/1999/xlink" version="1.1" x="0" y="0" viewBox="0.01820386256780493 0 99.96324499174287 100" enable-background="new 0 0 100 100" xml:space="preserve" height="95.481" width="95.445905950566" class="icon-icon-0" data-fill-palette-color="accent" id="icon-0"><g fill="#ffffff" data-fill-palette-color="accent"><path d="M73.428 5.851C66.234 2.019 58.144 0 50.039 0 31.477 0 14.542 10.186 5.846 26.566-7.075 50.918 2.212 81.241 26.562 94.161 33.768 97.979 41.848 100 49.953 100c18.573 0 35.509-10.174 44.204-26.556C107.077 49.095 97.778 18.77 73.428 5.851zM28.003 91.439C5.156 79.307-3.564 50.855 8.556 28.008 16.722 12.637 32.61 3.079 50.039 3.079c7.599 0 15.185 1.896 21.948 5.492 22.849 12.119 31.569 40.572 19.448 63.42-8.166 15.384-24.055 24.93-41.482 24.93C42.353 96.921 34.766 95.024 28.003 91.439z" fill="#000000" data-fill-palette-color="accent"></path><path d="M86.386 29.178c-0.42-0.738-1.356-0.998-2.095-0.566-0.738 0.419-0.998 1.368-0.58 2.095 0.112 0.209 0.236 0.406 0.347 0.615 9.582 17.465 4.2 39.672-12.44 50.808-8.438 5.653-18.524 7.746-28.488 5.924-0.234-0.038-0.456-0.073-0.69-0.124-0.825-0.159-1.638 0.382-1.811 1.207-0.172 0.838 0.37 1.65 1.207 1.824 2.771 0.553 5.542 0.825 8.302 0.825 8.204 0 16.22-2.428 23.204-7.095C91.508 72.521 97.236 48.135 86.386 29.178z" fill="#000000" data-fill-palette-color="accent"></path><path d="M25.799 80.183c-1.762-1.405-3.4-2.969-4.89-4.682-1.108-1.256-2.144-2.598-3.079-4.003l-1.281 0.863 1.207-0.986C5.969 53.639 10.772 29.561 28.459 17.71c5.481-3.67 11.788-5.874 18.303-6.429 0.197-0.025 0.395-0.037 0.592-0.05 0.85-0.048 1.49-0.787 1.428-1.638-0.062-0.85-0.801-1.489-1.638-1.429-7.267 0.493-14.312 2.907-20.397 6.983C7.656 27.946 2.458 53.935 15.133 72.989c0.049 0.073 0.099 0.159 0.135 0.222 1.022 1.516 2.131 2.969 3.326 4.323 1.749 1.995 3.695 3.843 5.789 5.455 0.271 0.223 0.604 0.32 0.937 0.32 0.468 0 0.911-0.209 1.219-0.591 0.518-0.677 0.395-1.637-0.271-2.167C26.107 80.428 25.947 80.305 25.799 80.183z" fill="#000000" data-fill-palette-color="accent"></path><path d="M64.449 13.917c4.359 1.748 8.326 4.237 11.774 7.403 0.295 0.271 0.678 0.405 1.047 0.405 0.42 0 0.826-0.171 1.134-0.504 0.577-0.616 0.529-1.602-0.099-2.169-3.72-3.423-8.006-6.108-12.711-7.993-0.801-0.32-1.688 0.062-2.009 0.851C63.278 12.71 63.66 13.597 64.449 13.917z" fill="#000000" data-fill-palette-color="accent"></path></g><path d="M42.932 69.048c-0.32-1.959-1.798-3.523-3.633-4.028-0.024-0.381-0.049-0.763-0.062-1.145-0.012-0.518-0.012-1.059 0-1.614 0.025-0.565 0.062-1.134 0.099-1.699 0.111-1.184 0.284-2.316 0.505-3.375 0.221-0.998 0.517-2.032 0.862-2.98l0.924-2.144c0.123-0.246 0.234-0.431 0.308-0.566 0-0.013 0.123-0.21 0.136-0.223 3.251-5.319 2.044-12.131-2.599-16.023-0.468-0.395-0.96-0.751-1.502-1.084-1.959-1.206-4.212-1.848-6.504-1.848-4.36 0-8.326 2.229-10.617 5.938-3.215 5.26-2.069 12.169 2.636 16.062 0.013 0.012 0.111 0.099 0.123 0.099l0.099 0.086c0.111 0.111 0.283 0.258 0.493 0.467l1.552 1.713c0.616 0.775 1.231 1.65 1.773 2.55 0.554 0.924 1.084 1.934 1.564 3.017 0.221 0.529 0.443 1.06 0.641 1.577 0.196 0.53 0.369 1.034 0.517 1.54 0.012 0.037 0.024 0.061 0.037 0.099l-0.504 1.649c-1.097 1.121-1.626 2.71-1.355 4.337 0 0.023 0.012 0.048 0.012 0.073 0.395 2.155 2.18 3.843 4.36 4.102 0.197 0.012 0.395 0.025 0.591 0.025 0.271 0 0.542-0.014 0.813-0.062 0.813-0.135 1.564-0.455 2.205-0.937 0.764 0.247 1.564 0.309 2.39 0.174 0.468-0.075 0.911-0.223 1.342-0.42C42.143 73.444 43.289 71.24 42.932 69.048zM38.805 71.622c-0.16 0.085-0.333 0.136-0.517 0.172-0.48 0.074-0.96-0.024-1.355-0.283-0.665-0.419-1.54-0.271-2.032 0.334-0.295 0.38-0.727 0.628-1.194 0.701-0.185 0.037-0.37 0.037-0.554 0.012-0.85-0.098-1.552-0.764-1.688-1.613-0.147-0.888 0.345-1.786 1.195-2.119l0.123-0.048c0.751-0.234 1.194-0.986 1.046-1.763-0.16-0.825-0.369-1.688-0.64-2.548-0.173-0.568-0.357-1.134-0.579-1.726-0.222-0.566-0.456-1.145-0.702-1.725-0.049-0.123-0.111-0.233-0.172-0.344V60.66c-0.493-1.085-1.01-2.095-1.577-3.019-0.616-1.009-1.305-2.007-2.02-2.895l-1.564-1.761-0.234-0.233c-0.259-0.247-0.469-0.444-0.604-0.556l-0.259-0.221c-3.56-2.957-4.421-8.153-1.995-12.107 1.712-2.796 4.693-4.472 7.981-4.472 1.725 0 3.412 0.48 4.89 1.392 0.813 0.493 1.515 1.098 2.106 1.774 2.661 3.006 3.189 7.501 1.022 11.036-0.012 0.023-0.086 0.135-0.099 0.16l-0.099 0.159c-0.099 0.174-0.246 0.431-0.394 0.727-0.062 0.111-0.111 0.222-0.173 0.346l-0.579 1.317c-0.012 0.013-0.049 0.123-0.062 0.148l-0.271 0.689c-0.382 1.084-0.727 2.254-0.973 3.388-0.258 1.182-0.444 2.449-0.566 3.768-0.049 0.628-0.086 1.244-0.111 1.86-0.012 0.615-0.012 1.22 0 1.799 0.038 0.887 0.099 1.773 0.222 2.636 0.11 0.775 0.776 1.342 1.564 1.33l0.062-1.54 0.074 1.54c0.899 0.05 1.663 0.727 1.811 1.625C40.037 70.402 39.594 71.253 38.805 71.622z" fill="#000000" data-fill-palette-color="accent"></path><path d="M57.133 59.588c0.727 1.552 1.934 2.834 3.448 3.635 0.11 0.061 0.233 0.123 0.344 0.171 1.455 0.679 3.104 0.899 4.682 0.641 0.899 0.333 1.823 0.506 2.783 0.506 0.777 0 1.552-0.124 2.304-0.346 1.639-0.505 3.067-1.527 4.076-2.918 2.181-0.53 4.065-1.984 5.124-3.979 1.097-2.045 1.22-4.484 0.358-6.64 0.368-1.416 0.344-2.895-0.087-4.312-0.604-1.958-1.934-3.571-3.658-4.556-0.542-0.309-1.109-0.555-1.712-0.727-0.543-0.506-1.133-0.936-1.774-1.282-1.527-0.813-3.312-1.096-5.025-0.813-1.612-0.603-3.411-0.664-5.073-0.146-0.702 0.209-1.367 0.518-1.983 0.924-2.647 0.233-5.025 1.798-6.27 4.163-0.702 1.305-1.01 2.746-0.911 4.226-1.244 1.944-1.589 4.358-0.911 6.589C53.513 56.879 55.088 58.652 57.133 59.588zM57.379 45.35c0.813-1.526 2.39-2.5 4.126-2.562 0.32 0 0.616-0.111 0.875-0.295 0.443-0.333 0.923-0.58 1.44-0.728 1.121-0.346 2.315-0.271 3.4 0.21 0.308 0.147 0.652 0.171 0.984 0.098 1.146-0.271 2.34-0.122 3.375 0.432 0.469 0.246 0.899 0.579 1.282 0.997 0.209 0.223 0.491 0.382 0.786 0.444 0.358 0.087 0.715 0.209 1.036 0.369 1.206 0.566 2.142 1.639 2.536 2.932 0.296 0.984 0.284 2.021-0.062 3.004-0.136 0.395-0.11 0.825 0.074 1.196 0.69 1.392 0.666 3.042-0.061 4.409-0.715 1.366-2.021 2.278-3.561 2.512-0.456 0.062-0.862 0.333-1.097 0.728-0.616 1.034-1.588 1.798-2.721 2.155-1.121 0.333-2.329 0.259-3.399-0.223-0.197-0.099-0.42-0.135-0.629-0.135-0.124 0-0.247 0.013-0.357 0.036-0.874 0.21-1.772 0.174-2.623-0.11-0.259-0.085-0.518-0.197-0.764-0.32-1.047-0.553-1.848-1.49-2.267-2.623-0.16-0.432-0.505-0.764-0.936-0.924-1.466-0.517-2.574-1.663-3.03-3.141-0.443-1.479-0.159-3.104 0.788-4.335 0.247-0.333 0.357-0.752 0.296-1.158C56.727 47.283 56.899 46.262 57.379 45.35z" fill="#000000" data-fill-palette-color="accent"></path></svg></g></svg></g></svg></g></svg></g></svg></g><g></g></svg></g><defs></defs></svg><rect width="95.445905950566" height="95.481" fill="none" stroke="none" visibility="hidden"></rect></g></svg></g></svg>